<svg fill="none" width="71" height="99" viewBox="0 0 71 99" xmlns="http://www.w3.org/2000/svg">
  <path fill="white" fill-rule="evenodd" d="m41.84 41.36-2.16 11.52 20.52 2.88-1.44 5.4-20.16-2.88c-1.44 4.68-2.16 9.72-3.96 14.04-1.8 5.04-3.6 10.08-5.76 14.76C26 93.2 20.96 97.52 14.12 98.6c-3.96.72-8.28.36-11.52-2.16C1.52 95.72.44 94.28.44 93.2c0-1.44.72-3.24 1.8-3.96.72-.36 2.52 0 3.6.36 1.08 1.08 2.16 2.52 2.88 3.96 2.16 2.88 5.04 3.24 7.92 1.08 3.24-2.88 5.04-6.84 6.12-10.8 2.16-8.64 4.32-16.92 6.12-25.56v-1.44L9.8 53.96l.72-5.4 19.8 2.88 2.52-11.16-20.52-3.24.72-5.76 21.24 2.88c.72-2.16 1.08-3.96 1.8-5.76 1.8-6.48 3.6-12.96 7.92-18.72 4.32-5.76 9.36-9.36 16.92-9 3.24 0 6.48 1.08 8.64 3.6.36.36 1.08 1.08 1.08 1.8 0 1.44 0 3.24-1.08 4.32-1.44 1.08-3.24.72-4.68-.72C63.8 8.6 63.08 7.52 62 6.44c-2.16-2.88-5.4-3.24-7.92-.72-1.8 1.8-3.6 4.32-4.68 6.84-2.52 7.56-4.32 15.48-6.84 23.4l19.8 2.88-1.44 5.4-19.08-2.88Z" clip-rule="evenodd"/>
</svg>